# xmcd CD database file
#
# Track frame offsets:
#	150
#	12082
#	26738
#	42334
#	56133
#	67974
#	77524
#	94001
#	105243
#	118390
#
# Disc length: 1751 seconds
#
# Revision: 0
# Processed by: cddbd v1.5.2PL0 Copyright (c) Steve Scherf et al.
# Submitted via: CDex 1.70beta2
#
DISCID=7806d50a
DTITLE=Champagne, Carole - Cdn. - ON - Cty - A Sip of Champagne
DYEAR=1900
DGENRE=Country
TTITLE0=Daddy's Guitar Tunes
TTITLE1=Knowing That It Wouldn't Last
TTITLE2=If I Could
TTITLE3=Magic Fingers
TTITLE4=Who Are You
TTITLE5=Amuse Me
TTITLE6=Butterflies
TTITLE7=Don't Gimmie That
TTITLE8=Si Tu Savals
TTITLE9=What i've Done With My Life
EXTD=
EXTT0=
EXTT1=
EXTT2=
EXTT3=
EXTT4=
EXTT5=
EXTT6=
EXTT7=
EXTT8=
EXTT9=
PLAYORDER=
